<svg width="32" height="32" viewBox="0 0 32 32" fill="none" xmlns="http://www.w3.org/2000/svg">
<g clip-path="url(#clip0)">
<path d="M15.5756 9.26627L5.33288 18.7569V29C5.33288 29.2652 5.42653 29.5196 5.59323 29.7071C5.75993 29.8947 5.98602 30 6.22177 30L12.4473 29.9819C12.6823 29.9806 12.9072 29.8746 13.073 29.6872C13.2387 29.4998 13.3318 29.2462 13.3318 28.9819V23C13.3318 22.7348 13.4254 22.4804 13.5921 22.2929C13.7588 22.1054 13.9849 22 14.2206 22H17.7762C18.0119 22 18.238 22.1054 18.4047 22.2929C18.5714 22.4804 18.6651 22.7348 18.6651 23V28.9775C18.6647 29.1091 18.6874 29.2395 18.7319 29.3612C18.7765 29.4828 18.8419 29.5935 18.9245 29.6866C19.007 29.7798 19.1051 29.8538 19.2132 29.9042C19.3212 29.9547 19.437 29.9806 19.554 29.9806L25.7773 30C26.013 30 26.2391 29.8947 26.4058 29.7071C26.5725 29.5196 26.6662 29.2652 26.6662 29V18.75L16.4256 9.26627C16.3053 9.1571 16.1553 9.09756 16.0006 9.09756C15.846 9.09756 15.696 9.1571 15.5756 9.26627ZM31.7551 15.7169L27.1106 11.41V2.75314C27.1106 2.55423 27.0404 2.36347 26.9154 2.22281C26.7903 2.08216 26.6208 2.00314 26.444 2.00314H23.3329C23.156 2.00314 22.9865 2.08216 22.8615 2.22281C22.7364 2.36347 22.6662 2.55423 22.6662 2.75314V7.29127L17.6923 2.68752C17.215 2.24563 16.616 2.00403 15.9979 2.00403C15.3797 2.00403 14.7807 2.24563 14.3034 2.68752L0.240662 15.7169C0.173155 15.7797 0.117304 15.8568 0.0762992 15.9438C0.0352948 16.0309 0.0099409 16.1262 0.00168612 16.2243C-0.00656865 16.3224 0.00243751 16.4213 0.02819 16.5155C0.0539425 16.6097 0.0959366 16.6972 0.151773 16.7731L1.56844 18.7106C1.62412 18.7868 1.69261 18.8499 1.76999 18.8962C1.84737 18.9426 1.93212 18.9713 2.01938 18.9808C2.10664 18.9903 2.1947 18.9803 2.27853 18.9514C2.36235 18.9225 2.44029 18.8753 2.50788 18.8125L15.5756 6.70377C15.696 6.5946 15.846 6.53506 16.0006 6.53506C16.1553 6.53506 16.3053 6.5946 16.4256 6.70377L29.494 18.8125C29.5614 18.8753 29.6393 18.9226 29.723 18.9515C29.8067 18.9805 29.8946 18.9907 29.9818 18.9814C30.069 18.9721 30.1537 18.9436 30.2311 18.8974C30.3085 18.8513 30.3771 18.7885 30.4328 18.7125L31.8495 16.775C31.9053 16.6987 31.9471 16.6107 31.9726 16.5161C31.998 16.4215 32.0066 16.3222 31.9978 16.2239C31.989 16.1255 31.9631 16.0301 31.9214 15.9431C31.8798 15.8561 31.8232 15.7792 31.7551 15.7169Z" fill="#116285"/>
</g>
<defs>
<clipPath id="clip0">
<rect width="32" height="32" fill="white"/>
</clipPath>
</defs>
</svg>
