<svg width="7" height="17" viewBox="0 0 7 17" fill="none" xmlns="http://www.w3.org/2000/svg">
<path d="M0.729167 14.0857H1.45833V9.28927H0.729167C0.326448 9.28927 0 8.99197 0 8.62521V7.03906C0 6.6723 0.326448 6.375 0.729167 6.375H4.8125C5.21522 6.375 5.54167 6.6723 5.54167 7.03906V14.0857H6.27083C6.67355 14.0857 7 14.383 7 14.7498V16.3359C7 16.7027 6.67355 17 6.27083 17H0.729167C0.326448 17 0 16.7027 0 16.3359V14.7498C0 14.383 0.326448 14.0857 0.729167 14.0857ZM3.5 0C2.05023 0 0.875 1.0703 0.875 2.39062C0.875 3.71095 2.05023 4.78125 3.5 4.78125C4.94977 4.78125 6.125 3.71095 6.125 2.39062C6.125 1.0703 4.94973 0 3.5 0Z" fill="#116285"/>
</svg>
