<svg viewBox="0 0 39 47" fill="currentColor" xmlns="http://www.w3.org/2000/svg">
<path d="M38.2891 9.63867L28.3461 0.642578C27.8891 0.229492 27.2695 0 26.6195 0H26V11.75H39V11.19C39 10.6117 38.7461 10.0518 38.2891 9.63867ZM22.75 12.4844V0H2.4375C1.08672 0 0 0.982227 0 2.20312V44.7969C0 46.0178 1.08672 47 2.4375 47H36.5625C37.9133 47 39 46.0178 39 44.7969V14.6875H25.1875C23.8469 14.6875 22.75 13.6961 22.75 12.4844ZM6.5 6.60938C6.5 6.20363 6.86359 5.875 7.3125 5.875H15.4375C15.8864 5.875 16.25 6.20363 16.25 6.60938V8.07812C16.25 8.48387 15.8864 8.8125 15.4375 8.8125H7.3125C6.86359 8.8125 6.5 8.48387 6.5 8.07812V6.60938ZM6.5 13.9531V12.4844C6.5 12.0786 6.86359 11.75 7.3125 11.75H15.4375C15.8864 11.75 16.25 12.0786 16.25 12.4844V13.9531C16.25 14.3589 15.8864 14.6875 15.4375 14.6875H7.3125C6.86359 14.6875 6.5 14.3589 6.5 13.9531ZM21.125 38.1765V40.3906C21.125 40.7964 20.7614 41.125 20.3125 41.125H18.6875C18.2386 41.125 17.875 40.7964 17.875 40.3906V38.1609C16.7284 38.1076 15.6132 37.746 14.689 37.119C14.2929 36.85 14.2726 36.3139 14.6311 36.0046L15.8245 34.9755C16.1058 34.7332 16.5242 34.7222 16.8533 34.9085C17.2463 35.1307 17.6922 35.25 18.1553 35.25H21.0102C21.6704 35.25 22.2087 34.7066 22.2087 34.0392C22.2087 33.493 21.842 33.012 21.318 32.8706L16.7477 31.6314C14.8596 31.1191 13.5403 29.4815 13.5403 27.6483C13.5403 25.3974 15.4751 23.5688 17.874 23.511V21.2969C17.874 20.8911 18.2376 20.5625 18.6865 20.5625H20.3115C20.7604 20.5625 21.124 20.8911 21.124 21.2969V23.5266C22.2706 23.5799 23.3858 23.9406 24.31 24.5685C24.7061 24.8375 24.7264 25.3736 24.3679 25.6829L23.1745 26.712C22.8932 26.9543 22.4748 26.9653 22.1457 26.779C21.7527 26.5559 21.3068 26.4375 20.8437 26.4375H17.9887C17.3286 26.4375 16.7903 26.9809 16.7903 27.6483C16.7903 28.1945 17.157 28.6755 17.681 28.8169L22.2513 30.0561C24.1394 30.5684 25.4587 32.206 25.4587 34.0392C25.4587 36.291 23.5239 38.1187 21.125 38.1765Z" fill="currentColor"/>
</svg>
