<svg width="120" height="68" viewBox="0 0 120 68" fill="none" xmlns="http://www.w3.org/2000/svg">
<path d="M17 41C17 18.9086 34.9086 1 57 1H66C88.0914 1 106 18.9086 106 41V67H17V41Z" fill="black"/>
<path d="M119.5 66.5C109.5 66.5 108 56.5 105.5 39C103 21.4999 104.5 39 104.5 39V66.5H119.5Z" fill="black"/>
<path d="M0.784424 66C12.5773 66 14.3462 56.0788 17.2944 38.7165C20.2426 21.3543 18.4737 38.7165 18.4737 38.7165V66H0.784424Z" fill="black"/>
<path d="M17 41C17 18.9086 34.9086 1 57 1H66C88.0914 1 106 18.9086 106 41V67H17V41Z" stroke="black"/>
<path d="M119.5 66.5C109.5 66.5 108 56.5 105.5 39C103 21.4999 104.5 39 104.5 39V66.5H119.5Z" stroke="black"/>
<path d="M0.784424 66C12.5773 66 14.3462 56.0788 17.2944 38.7165C20.2426 21.3543 18.4737 38.7165 18.4737 38.7165V66H0.784424Z" stroke="black"/>
</svg>
