<svg width="1795" height="50" viewBox="0 0 1795 50" fill="none" xmlns="http://www.w3.org/2000/svg">
<path d="M0.5 42.8519H30.574C60.6479 42.8519 120.796 42.8519 180.944 44.643C241.092 46.3671 301.24 50.0497 361.387 49.9995C421.535 50.0497 481.683 46.3671 541.831 44.643C601.979 42.8519 662.127 42.8519 722.275 38.3826C782.423 33.9802 842.571 24.9412 902.719 24.9914C962.866 24.9412 1023.01 28.2744 1083.16 29.1114C1143.31 29.9483 1203.46 11.5451 1263.61 9.70379C1323.75 7.86249 1374.38 9.70379 1437.03 12.4208C1494.7 14.9216 1559.33 7.66357 1619.48 5.82227C1679.63 3.98098 1728.29 0 1760.83 0H1800.5H1774.86C1744.79 0 1684.64 0 1624.49 0C1564.35 0 1504.2 0 1444.05 0C1383.9 0 1323.75 0 1263.61 0C1203.46 0 1143.31 0 1083.16 0C1023.01 0 962.866 0 902.719 0C842.571 0 782.423 0 722.275 0C662.127 0 601.979 0 541.831 0C481.683 0 421.535 0 361.387 0C301.24 0 241.092 0 180.944 0C120.796 0 60.6479 0 30.574 0H0.5V42.8519Z" fill="#116285"/>
</svg>
