<svg width="1800" height="96" viewBox="0 0 1800 96" fill="none" xmlns="http://www.w3.org/2000/svg">
<path d="M-65 15.1469C1.5 23.1469 58.6147 12.6469 127 6.52781C190.5 0.845869 252 -1.06808 319 9.93192C386 20.9319 453 46.0368 517 51.9859C581 57.7125 614 32.8249 688.5 26.9859C763 21.1469 822 54.0982 916.5 35C986.5 20.8532 1030 6.52778 1100 6.52778C1170 6.52778 1198.5 9.93192 1279 26.9859C1343 44.7775 1407 60.7888 1471 63.7355C1535 66.9047 1599 58.1616 1663 46.4859C1711.5 37.6379 1741 21.2356 1855 0.578735V95.4859H1823C1791 95.4859 1727 95.4859 1663 95.4859C1599 95.4859 1535 95.4859 1471 95.4859C1407 95.4859 1343 95.4859 1279 95.4859C1215 95.4859 1151 95.4859 1087 95.4859C1023 95.4859 959 95.4859 895 95.4859C831 95.4859 767 95.4859 703 95.4859C639 95.4859 575 95.4859 511 95.4859C447 95.4859 383 95.4859 319 95.4859C255 95.4859 191 95.4859 127 95.4859C63 95.4859 -1 95.4859 -33 95.4859H-65V15.1469Z" fill="#116285"/>
</svg>
